HIERARCHY
ROOT Hips
{
     OFFSET 10.62050 98.03320 -98.02240
     CHANNELS 6 Xposition Yposition Zposition Zrotation Xrotation Yrotation
     JOINT Spine
     {
          OFFSET 0.00000 11.89050 0.00000
          CHANNELS 3 Zrotation Xrotation Yrotation
          JOINT Spine1
          {
               OFFSET 0.00000 25.65740 0.12766
               CHANNELS 3 Zrotation Xrotation Yrotation
               JOINT HEad
               {
                    OFFSET 0.00000 8.73416 0.01134
                    CHANNELS 3 Zrotation Xrotation Yrotation
                    End Site
                    {
                         OFFSET -0.29000 12.77420 2.51395
                    }
               }
               JOINT LeftShoulder1
               {
                    OFFSET 8.99000 -0.36225 -0.22000
                    CHANNELS 3 Zrotation Xrotation Yrotation
                    JOINT LeftArm
                    {
                         OFFSET 10.28270 -0.00338 0.32212
                         CHANNELS 3 Zrotation Xrotation Yrotation
                         JOINT LeftForeArm
                         {
                              OFFSET 32.76690 0.09914 -1.42434
                              CHANNELS 3 Zrotation Xrotation Yrotation
                              JOINT LeftHand
                              {
                                   OFFSET 27.56430 0.08536 1.02216
                                   CHANNELS 3 Zrotation Xrotation Yrotation
                                   End Site
                                   {
                                        OFFSET 16.74430 -0.60000 1.50291
                                   }
                              }
                         }
                    }
               }
               JOINT RightShoulder
               {
                    OFFSET -8.99000 -0.36225 -0.22000
                    CHANNELS 3 Zrotation Xrotation Yrotation
                    JOINT RightArm
                    {
                         OFFSET -10.28270 -0.00338 0.32212
                         CHANNELS 3 Zrotation Xrotation Yrotation
                         JOINT RightForeArm
                         {
                              OFFSET -32.89710 0.09914 -1.42434
                              CHANNELS 3 Zrotation Xrotation Yrotation
                              JOINT RightHand
                              {
                                   OFFSET -27.49210 0.08536 1.02216
                                   CHANNELS 3 Zrotation Xrotation Yrotation
                                   End Site
                                   {
                                        OFFSET -16.63120 -0.60000 1.50291
                                   }
                              }
                         }
                    }
               }
          }
     }
     JOINT LeftUpLeg
     {
          OFFSET 8.94580 -8.66707 0.10165
          CHANNELS 3 Zrotation Xrotation Yrotation
          JOINT LeftLeg
          {
               OFFSET 0.00000 -44.42270 1.37270
               CHANNELS 3 Zrotation Xrotation Yrotation
               JOINT LeftFoot
               {
                    OFFSET -0.25355 -42.09240 -1.46059
                    CHANNELS 3 Zrotation Xrotation Yrotation
                    JOINT LeftToes
                    {
                         OFFSET -0.04000 -4.41509 8.49910
                         CHANNELS 3 Zrotation Xrotation Yrotation
                         End Site
                         {
                              OFFSET 0.08000 -0.04745 9.77979
                         }
                    }
               }
          }
     }
     JOINT RightUpLeg
     {
          OFFSET -8.94580 -8.66707 0.10165
          CHANNELS 3 Zrotation Xrotation Yrotation
          JOINT RightLeg
          {
               OFFSET 0.00000 -44.42270 1.37270
               CHANNELS 3 Zrotation Xrotation Yrotation
               JOINT RightFoot
               {
                    OFFSET 0.25355 -42.09240 -1.46059
                    CHANNELS 3 Zrotation Xrotation Yrotation
                    JOINT RightToes
                    {
                         OFFSET 0.04000 -4.41509 8.49910
                         CHANNELS 3 Zrotation Xrotation Yrotation
                         End Site
                         {
                              OFFSET -0.08000 -0.13745 9.77979
                         }
                    }
               }
          }
     }
}
MOTION
Frames: 12
Frame Time: 0.01667
10.62050 98.03320 -98.02240 -7.37405 -11.04360 -24.55110 5.46501 7.16033 0.24242 3.15376 14.98130 1.05321 -9.19895 9.16136 6.60221 0.00000 0.00000 0.00000 -97.16480 -35.48150 -65.50300 15.19200 39.72860 -108.39400 33.42770 11.91800 11.32190 10.81470 0.89378 3.64089 71.69280 -13.25100 73.06970 6.56451 27.40140 80.44510 -2.26687 9.68727 11.70260 15.12790 -9.49708 5.46212 -1.59479 14.15810 4.89794 -8.04045 -4.24099 0.25121 6.89427 10.08050 -3.08138 -3.10096 -0.46113 -3.50581 2.05983 32.53620 -3.08144 8.68752 -24.65700 1.05132 3.86823 16.33020 -12.87510 
10.75650 97.97370 -97.33930 -7.41047 -10.94620 -24.83070 5.40855 7.18471 0.36137 2.96498 15.03700 1.32591 -9.08261 9.09645 6.53031 0.00000 0.00000 0.00000 -96.58000 -35.34890 -64.75320 15.09800 39.67570 -108.36500 33.27560 11.91910 11.36030 10.82570 0.87434 3.49728 71.28460 -12.96270 73.25960 6.32374 27.00600 80.12060 -2.32279 9.68091 11.60230 15.14680 -9.77144 4.50147 -2.03023 14.97680 5.70534 -7.77148 -3.15703 0.31022 6.63063 9.80822 -3.48442 -3.34503 -0.22412 -3.42199 1.92637 32.64440 -2.60414 9.43341 -25.13380 1.20560 3.97389 16.64290 -12.85220 
10.91970 97.95790 -96.62640 -7.36285 -10.84340 -25.21740 5.28664 7.19925 0.52822 2.73863 15.06150 1.68242 -8.92746 8.93503 6.45051 0.00000 0.00000 0.00000 -96.24210 -35.33440 -64.22990 14.71420 39.81040 -108.35900 33.11510 11.88030 11.26100 10.77420 0.85237 3.35636 71.01640 -12.77980 73.56070 6.10996 26.76800 79.98570 -2.39569 9.67253 11.48740 15.13620 -9.90049 3.71425 -2.59359 15.53550 6.85063 -7.25686 -1.96646 0.35806 5.84107 8.87809 -3.91645 -3.70248 0.03291 -3.32630 1.75024 32.61340 -2.00442 10.19350 -25.59590 1.36783 4.15192 17.14960 -12.95990 
11.10610 97.97400 -95.88780 -7.22212 -10.78880 -25.73170 5.08230 7.22046 0.73655 2.45967 15.08350 2.12154 -8.83149 8.79889 6.39933 0.00000 0.00000 0.00000 -96.05990 -35.31990 -63.92270 14.03540 39.97060 -108.31900 32.97140 11.77950 10.93860 10.65720 0.83158 3.24417 70.93540 -12.72820 73.97160 5.98412 26.72530 80.05770 -2.47364 9.66335 11.39010 14.97030 -9.78951 3.43030 -2.99825 15.81880 7.79428 -6.78495 -0.81311 0.39569 4.93076 7.79707 -4.30751 -4.17896 0.29300 -3.20085 1.50303 32.51700 -1.35155 10.80140 -25.91150 1.49740 4.27084 17.46380 -13.18230 
11.31290 98.02620 -95.12970 -6.99609 -10.78070 -26.34900 4.79955 7.25030 0.96268 2.12837 15.10740 2.59193 -8.83933 8.79313 6.44517 0.00000 0.00000 0.00000 -95.77840 -35.14950 -63.74330 13.12730 39.86750 -108.21100 32.84320 11.63770 10.46500 10.49250 0.81743 3.19442 71.06910 -12.78540 74.49410 5.93610 26.89650 80.35900 -2.57562 9.65120 11.28370 14.58840 -9.46493 3.82147 -3.04267 15.90520 8.17033 -6.54701 0.06110 0.42593 4.42424 7.19889 -4.52165 -4.74029 0.50664 -3.03011 1.18476 32.41380 -0.76474 11.23650 -25.96810 1.57567 4.26330 17.39040 -13.54180 
11.53740 98.11690 -94.36810 -6.70792 -10.76130 -26.99800 4.45984 7.27812 1.16283 1.76640 15.11700 2.99938 -8.94118 8.92119 6.63999 0.00000 0.00000 0.00000 -95.68120 -35.06600 -63.85350 12.14380 39.80110 -108.24500 32.76780 11.48540 9.94066 10.29160 0.81410 3.23602 71.46080 -12.84940 75.14070 5.86427 27.26930 80.91020 -2.71436 9.63542 11.11300 14.04540 -9.06462 4.74944 -2.76479 15.89560 8.02122 -6.50506 0.51596 0.44607 4.51563 7.31756 -4.53561 -5.32616 0.56011 -2.81573 0.85558 32.41570 -0.40251 11.58500 -25.70240 1.60686 4.12815 16.93240 -14.08730 
11.77970 98.24230 -93.62640 -6.39530 -10.67350 -27.61200 4.09975 7.29848 1.29616 1.40379 15.10920 3.25978 -9.09287 9.08150 6.97666 0.00000 0.00000 0.00000 -95.73020 -35.11850 -64.27780 11.19900 39.75650 -108.44600 32.78290 11.35200 9.46513 10.03620 0.82160 3.37926 72.16700 -12.79650 75.92040 5.65199 27.79850 81.70010 -2.84689 9.62241 10.85920 13.48040 -8.70393 5.81295 -2.42615 15.82100 7.73738 -6.42392 0.60851 0.44487 4.93518 7.83174 -4.45382 -5.88012 0.32219 -2.57549 0.60462 32.69430 -0.39520 11.96770 -25.10390 1.60670 3.92501 16.27310 -14.86230 
12.03990 98.39060 -92.92850 -6.10111 -10.49470 -28.17800 3.75659 7.31725 1.35522 1.06181 15.10220 3.36317 -9.25019 9.13960 7.42086 0.00000 0.00000 0.00000 -95.90240 -35.30480 -65.01950 10.44620 39.73110 -108.84000 32.99390 11.25660 9.09385 9.70553 0.83425 3.59481 73.17760 -12.57710 76.80640 5.28246 28.42270 82.66250 -2.91613 9.61887 10.56860 13.02440 -8.41341 6.62130 -2.29168 15.66420 7.72951 -6.07083 0.52366 0.41536 5.21897 8.17987 -4.39970 -6.36454 -0.31464 -2.32114 0.50864 33.43480 -0.81443 12.46070 -24.18590 1.58430 3.72755 15.63890 -15.82260 
12.31000 98.53990 -92.29770 -5.84917 -10.22730 -28.73310 3.44303 7.34235 1.36715 0.74144 15.11310 3.37638 -9.38823 9.00140 7.95122 0.00000 0.00000 0.00000 -96.18050 -35.55310 -66.03750 10.06380 39.71820 -109.47000 33.49140 11.22150 8.89596 9.32360 0.84508 3.82616 74.36200 -12.23250 77.73030 4.83536 29.08080 83.68860 -2.91133 9.62438 10.31210 12.72680 -8.20453 7.03385 -2.42299 15.45350 8.13690 -5.44154 0.40809 0.36553 5.13061 8.06771 -4.39716 -6.75538 -1.42577 -2.07157 0.59838 34.76260 -1.68149 13.00500 -22.96490 1.52651 3.55649 15.10990 -16.71750 
12.57680 98.67650 -91.74640 -5.62970 -9.88701 -29.33030 3.14919 7.37930 1.37056 0.42627 15.14960 3.37722 -9.50737 8.63041 8.52871 0.00000 0.00000 0.00000 -96.54000 -35.77430 -67.26740 10.10100 39.69450 -110.28100 34.20740 11.25600 8.90914 8.94358 0.85154 4.03365 75.51990 -11.82020 78.61520 4.36699 29.70390 84.66420 -2.86524 9.63361 10.13040 12.54090 -8.08020 7.14245 -2.68534 15.22330 8.84637 -4.78096 0.30377 0.31521 4.80263 7.64705 -4.36941 -7.03892 -2.99410 -1.90198 0.82837 36.59690 -2.92173 13.40830 -21.49430 1.40971 3.38130 14.62150 -17.12990 
12.82610 98.79860 -91.27610 -5.41148 -9.49886 -29.99690 2.85523 7.43342 1.38710 0.10550 15.21830 3.39825 -9.64508 8.04327 9.09309 0.00000 0.00000 0.00000 -96.97320 -35.92960 -68.64980 10.40180 39.66240 -111.06100 34.94030 11.33330 9.06041 8.59353 0.85468 4.21144 76.46930 -11.35240 79.40730 3.85061 30.19740 85.48990 -2.80659 9.64291 10.02230 12.38240 -8.03652 7.11014 -2.91212 14.99020 9.67852 -4.34696 0.21444 0.28216 4.47785 7.20096 -4.20751 -7.20136 -4.90161 -1.93407 1.07975 38.65310 -4.29093 13.50900 -19.98400 1.24436 3.15845 14.04950 -16.81800 
13.04750 98.90790 -90.88140 -5.17825 -9.08740 -30.71670 2.55071 7.50952 1.41025 -0.21573 15.32710 3.42098 -9.83209 7.29801 9.63762 0.00000 0.00000 0.00000 -97.50300 -36.06130 -70.12960 10.79150 39.66890 -111.61100 35.51750 11.41160 9.23122 8.27344 0.85667 4.37468 77.09430 -10.79910 80.07250 3.24201 30.44800 86.07500 -2.72936 9.65361 9.95809 12.21050 -8.07627 7.03798 -3.03785 14.78420 10.51150 -4.19997 0.14079 0.26980 4.30447 6.89327 -3.80539 -7.20539 -6.97576 -2.25476 1.22161 40.55940 -5.38918 13.34080 -18.80760 1.08950 2.85297 13.25510 -16.04010 
